<svg width="80" height="80" viewBox="0 0 80 80" fill="none" xmlns="http://www.w3.org/2000/svg">
<path d="M71.8285 17.2823L43.3251 0.888007C42.3144 0.306274 41.1678 0 40.0006 0C38.8333 0 37.6867 0.306274 36.6761 0.888007L8.1726 17.2823C7.16143 17.8638 6.32178 18.7003 5.73809 19.7077C5.1544 20.7151 4.84725 21.8579 4.84753 23.0211V56.9781C4.8473 58.141 5.15449 59.2834 5.7382 60.2904C6.3219 61.2975 7.16153 62.1336 8.1726 62.7146L36.6761 79.1111C37.6865 79.6934 38.8332 80 40.0006 80C41.1679 80 42.3146 79.6934 43.3251 79.1111L71.8285 62.7146C72.8394 62.1335 73.6789 61.2974 74.2624 60.2903C74.8459 59.2833 75.1529 58.1409 75.1525 56.9781V23.0211C75.153 21.8579 74.846 20.7152 74.2625 19.7078C73.679 18.7004 72.8395 17.8638 71.8285 17.2823ZM23.2662 37.5529L18.5246 32.7398L23.3534 28.0158L37.8478 13.837L42.5894 18.6513L28.0984 32.8255L42.3255 47.2672L37.4978 51.9912L23.2662 37.5529ZM42.1522 66.3426L37.4072 61.5283L51.9027 47.354L37.6711 32.9158L42.5033 28.1884L56.7304 42.6256L61.4754 47.4398L42.1522 66.3426Z" fill="#3243D1"/>
<path d="M28.0984 32.8254L42.3255 47.2671L37.4978 51.9911L23.2662 37.5528L18.5245 32.7397L23.3534 28.0157L37.8477 13.8369L42.5893 18.6512L28.0984 32.8254Z" fill="white"/>
<path d="M61.4754 47.4399L42.1522 66.3426L37.4072 61.5284L51.9027 47.3541L37.6711 32.9158L42.5033 28.1885L56.7304 42.6256L61.4754 47.4399Z" fill="white"/>
</svg>
