<svg width="73" height="80" viewBox="0 0 73 80" fill="none" xmlns="http://www.w3.org/2000/svg">
<path d="M0 9.00901L36.0166 0L72.0332 9.00901C70.5132 51.3976 61.6646 65.8171 36.0166 80C8.96418 65.5488 1.44844 49.6251 0 9.00901Z" fill="#85E772"/>
<path d="M20.5295 19.0991C20.5295 22.8805 17.4657 25.9459 13.6863 25.9459C9.90694 25.9459 6.84315 22.8805 6.84315 19.0991C6.84315 15.3177 9.90694 12.2523 13.6863 12.2523C17.4657 12.2523 20.5295 15.3177 20.5295 19.0991Z" fill="white"/>
<path d="M18.3685 19.0991C18.3685 21.6864 16.2722 23.7838 13.6863 23.7838C11.1004 23.7838 9.00415 21.6864 9.00415 19.0991C9.00415 16.5118 11.1004 14.4144 13.6863 14.4144C16.2722 14.4144 18.3685 16.5118 18.3685 19.0991Z" fill="#111821"/>
<path d="M56.5461 51.5315C56.5461 55.512 53.321 58.7387 49.3427 58.7387C45.3645 58.7387 42.1394 55.512 42.1394 51.5315C42.1394 47.5511 45.3645 44.3243 49.3427 44.3243C53.321 44.3243 56.5461 47.5511 56.5461 51.5315Z" fill="white"/>
<path d="M54.0249 51.5315C54.0249 54.1188 51.9286 56.2162 49.3427 56.2162C46.7569 56.2162 44.6606 54.1188 44.6606 51.5315C44.6606 48.9443 46.7569 46.8468 49.3427 46.8468C51.9286 46.8468 54.0249 48.9443 54.0249 51.5315Z" fill="#111821"/>
<path d="M43.2199 54.7748V48.2883H24.4913V28.4685C19.9892 28.4685 18.3685 30.991 18.3685 32.7928V54.7748H43.2199Z" fill="white"/>
<path d="M18.7286 23.0631V16.2162H49.7029C53.8448 16.2162 56.9062 20.7207 56.9062 26.1261C56.9062 31.5315 53.6647 35.6757 49.7029 35.6757H36.0166V42.5225H34.5759C32.2349 42.5225 30.2539 40.1802 30.2539 38.5586V29.1892H48.6224C50.0631 29.1892 50.7834 27.7477 50.7834 26.3063C50.7834 24.8649 50.0631 23.0631 48.6224 23.0631H18.7286Z" fill="white"/>
</svg>
